<svg style="display: none;"><symbol viewBox="0 0 102 133.3" id="shape-flower"><title>flower</title> <g> <path d="M87.3,29.8l-0.9,0.4c-0.3,0-0.6-0.2-0.9-0.6c-1.1-1.8-2.1-2.7-3.1-2.7c-2.2,0-4,0.5-5.4,1.4
		c-1.5,1-2.2,2.1-2.2,3.3c0,0.7,0.5,2.2,1.6,4.5c1.1,2.3,1.6,4.4,1.6,6.1c0,3.7-4.2,9-12.6,15.7c-1.5,0.7-3,1.3-4.5,1.9
		c-2.4,1.3-3.6,3-3.6,5.1c0,0.3,0.5,1.1,1.5,2.2c1,1.2,1.5,2,1.5,2.4c0,0.2-0.3,0.7-1,1.7c-0.7,1-1,1.8-1,2.5c0,1.2,0.8,2.3,2.3,3.4
		c1.5,1.1,3.1,1.7,4.8,1.7c0.2,0,0.6-0.1,1.3-0.2c0.7-0.1,1.3-0.2,1.8-0.2c1.2,0,2.4,0.7,3.6,2c1.6,1.7,2.7,2.7,3.5,3.1
		c2.3,1.2,3.7,2,4,2.2c1.1,0.7,1.7,1.7,2,3c0.3,0.8,0.5,1.3,0.5,1.5v0.1c-0.1,0-0.1,0-0.1,0.1c-0.5,0.5-1.5,0.7-2.9,0.7
		c-3.2,0-6.2-0.6-9.1-1.9c-2.4-1.2-4.9-2.3-7.3-3.4c-0.9-1.1-2.2-3.1-3.7-6c-1-1.7-1.9-2.6-2.6-2.6c-0.7,0-1.9,0.6-3.6,1.9
		c0.9,4.6,2.5,9.6,4.7,15.2c0,0.2,0,0.6,0,1.1c-0.1,0.4-0.1,0.8-0.1,1.1c0,1.1-0.7,3.1-2,6.2c-1.3,3-2,5.2-2,6.4
		c0,1.1,0.5,1.6,1.4,1.6c0.3,0,1.2-0.8,2.6-2.4c1.4-1.6,2.9-2.4,4.5-2.4c1.9,0,2.9,0.9,2.9,2.7l0.5,0.9c0.4-0.2,1-0.5,1.7-1.1
		c0.7-0.6,1.3-0.9,1.7-0.9c1,0,1.7,0.8,2.1,2.4c0,1.9-0.7,2.9-2.2,2.9c-0.1,0-0.3,0-0.7-0.1c-0.4-0.1-0.7-0.1-1-0.1
		c-2.7,0-5.6,1.2-8.7,3.6c-3.7,2.9-5.7,6.5-6.2,10.7l-0.7,1c-0.5,0-0.9-0.2-1.2-0.5c-3.3-9.2-8.3-13.8-14.8-13.8
		c-0.2,0-0.9,0-1.9,0.1c-1,0.1-1.8,0.1-2.5,0.1c-1.3,0-2-0.7-2-2.1c0-1.2,0.9-2.7,2.7-4.5l1-0.5l1,0.4c1.9,1.2,3.1,1.9,3.5,1.9
		c0.2,0,0.7-0.4,1.4-1.2c0.7-0.8,1.3-1.2,1.7-1.2c2.2,0,3.9,0.5,5.1,1.5c0.7,0.7,1.4,1.7,1.9,3c0.4,1,0.8,1.5,1.2,1.5
		c1,0,1.5-1,1.5-3c0-0.8-0.5-2.9-1.6-6.3c-1.1-3.4-1.7-5.9-1.9-7.5c3.2-6.4,4.9-11.1,4.9-14.1v-0.2l-0.2-2.6
		c-0.2-0.1-0.5-0.1-0.6-0.1c-0.2,0-0.7,0.5-1.4,1.6c-1.2,1.7-2.2,3.1-3,4.1c-3.1,3.8-5.5,5.7-7.3,5.7c-0.9,0-1.9-0.4-3.1-1.1
		c-1.1-0.7-1.8-1.1-2.2-1.1c-0.7,0-1.8,0.2-3.5,0.7c-1.7,0.5-2.9,0.7-3.7,0.7c-1.1,0-2.3-0.3-3.7-0.9c-1.4-0.6-2.2-1.2-2.5-1.7
		c3.6-1.8,7.3-2.7,11.1-2.7c0.2,0,0.7,0.1,1.4,0.3c0.7,0.2,1.2,0.3,1.5,0.3c2.5,0,4.1-0.9,4.9-2.7c2.2-1,4.5-2,6.7-3
		c1.8-1,2.7-2.4,2.7-4.1c0-2.2-1.1-3.2-3.2-3.2c0.1,0-2,0.8-6.2,2.3c-4.2,1.5-8.4,2.3-12.5,2.3c-3.9,0-8.1-1.2-12.6-3.5
		c-5.4-2.8-8.2-6-8.5-9.6l-0.1-1.9C5.2,61,5.3,61,5.5,61c0.2,0,0.4,0.1,0.6,0.4c1.9,3,4,4.5,6.3,4.5c1.4,0,2.3-0.5,2.7-1.4
		c0.4-0.9,0.8-1.9,1.2-2.9c0.5-1,1.8-1.6,3.9-1.6c0.9,0,2.6,0.4,5,1.1c2.4,0.7,4,1.3,4.7,1.7c1.6,1.3,3.9,2.9,6.8,4.6
		c1.9,1,3.6,1.5,5.1,1.5c1,0,2.1-0.6,3.4-1.9c1.2-1.2,1.9-2.2,1.9-2.7c0-0.7-1.2-1.4-3.5-2c-3.8-1.1-6.6-2-8.5-2.9
		c-4.6-2.1-8.3-5-11.1-8.8c-2.2-3-3.2-5.5-3.2-7.6c0-1.7,0.5-3.3,1.6-5c1.2-2.1,1.9-3.3,2-3.7C23.9,32.1,22,31,18.9,31
		c-0.4,0-1.1,0.2-2.1,0.6c-1,0.4-1.7,0.6-2.2,0.6c-0.3,0-0.7-0.1-1-0.2l0.1-1.1c1.1-2.2,2.8-3.4,5.2-3.4c4.2,0,7.9,1.3,11.1,4
		c2.3,1.9,5.3,5.5,9,10.7c1,1.4,1.5,3.2,1.5,5.4v1.4c0,1.9,0.5,3.5,1.6,4.9c0.8,1,2.7,2.5,5.5,4.6c0.3-0.1,0.5-0.4,0.5-0.9
		c0-0.4-1-4-3.1-10.9C43,39.7,42,33.4,42,27.9c0-4.2,0.7-6.3,2.2-6.3c-0.4,0,0.3,0.2,2.1,0.6c0.3-0.3,0.5-1.5,0.5-3.6v-2.9
		c0-2.9,0.9-4.4,2.6-4.4c1.1,0,1.7,1.3,1.9,3.9c0.2,3.2,0.6,5.2,1,5.9c0.9,0.3,1.8,0.6,2.6,0.9c1.4,0.7,2.1,2.4,2.1,5.1
		c0,4.1-0.8,8.9-2.3,14.6c-1.5,5.6-2.3,9.3-2.3,10.8c0,0.8,0.7,2.7,2.2,5.6c2.2-1.7,3.4-4.1,3.9-7.1c0.3-2.3,0.6-4.7,0.9-7.1
		c1.4-5.6,4.2-10.1,8.3-13.7c4.1-3.6,8.6-5.4,13.4-5.4c1.7,0,3.7,1.3,5.7,3.9L87.3,29.8z M96.7,61.8c-1,2.5-2.4,4.7-4.1,6.7
		c-1.4,1.6-2.3,2.4-2.7,2.4c-0.2,0-0.5-0.1-1-0.4s-0.9-0.4-1.2-0.4c-1,0-2.8,0.4-5.4,1.3c-2.6,0.9-4.8,1.3-6.4,1.3
		c-2.4,0-4.8-0.6-7-1.8c-2.3-1.2-4.1-1.8-5.4-1.8h-0.7c-0.3,0-0.5-0.2-0.5-0.6c0-0.2,0-0.3,0.1-0.5c1.1-3,3.5-5.4,7.2-7.3
		c3.4-1.7,6.8-2.6,10.2-2.6c0.6,0,1.1,0.4,1.6,1.2c2.1,0.3,3.3,1.5,3.8,3.5c0.5,2,1.2,3,2.3,3c2.4,0,4.8-1.6,7.1-4.7l0.7-1
		C96.2,60.4,96.7,61,96.7,61.8z"/> </g> </symbol></svg>